<?xml version="1.0" encoding="UTF-8"?><svg id="text_outlines" xmlns="http://www.w3.org/2000/svg" viewBox="0 0 44.8171 50.9427"><defs><style>.cls-1{fill:#1b6875;}</style></defs><path class="cls-1" d="M35.7447,14.6629c-.0016-3.0858-2.5134-5.5976-5.5992-5.5992h-.003c-1.4996,0-2.8636.5925-3.8702,1.5557-1.0065-.9639-2.3708-1.557-3.871-1.5572h-.0008c-1.4999,0-2.864.5927-3.8706,1.5561-1.0066-.9637-2.371-1.5566-3.8713-1.5566-3.089,0-5.6022,2.5131-5.6022,5.6022v21.6095c0,3.089,2.5131,5.6022,5.6022,5.6022,1.4993,0,2.8629-.5921,3.8694-1.5548,1.0475,1.0032,2.4175,1.5542,3.8726,1.5542h.0008c1.5001-.0002,2.8643-.5933,3.8709-1.5571,1.0066.9632,2.3706,1.5556,3.8703,1.5556h.003c3.0858-.0016,5.5976-2.5134,5.5992-5.5992v-1.0894h-3.4623v1.0876c-.0006,1.1787-.96,2.1381-2.1387,2.1387h-.0012c-1.1793,0-2.1392-.9593-2.1398-2.1387v-8.6731c0-1.5001-.5928-2.8644-1.5563-3.871-1.0205-1.0662-2.4569-1.7311-4.0458-1.7311-1.1799,0-2.1398-.9599-2.1398-2.1398v-2.4811h-3.4623v2.4811c0,.1997.0107.397.0312.5914.2964,2.8121,2.6816,5.0107,5.5709,5.0107,1.1799,0,2.1398.9599,2.1398,2.1398v8.6738c0,.0461-.002.0917-.0049.1371-.0711,1.1159-1.0011,2.0023-2.1346,2.0024h-.0003c-.5715,0-1.1087-.2225-1.5129-.6265-.3717-.3716-.5894-.856-.6221-1.3759-.0029-.0455-.0048-.0911-.0048-.1371v-7.3444h-5.6021v3.4623h2.1398v3.8823c0,1.1799-.9599,2.1398-2.1398,2.1398s-2.1398-.9599-2.1398-2.1398V14.6638c0-1.1799.9599-2.1398,2.1398-2.1398s2.1398.9599,2.1398,2.1398v.5725h3.4623v-.5723c0-.5716.2227-1.1089.627-1.513.4042-.4041.9414-.6265,1.5129-.6265h.0003c1.1796.0002,2.1394.96,2.1395,2.1395v4.1255c.922.2232,1.789.5868,2.5768,1.0678.2964.181.5816.3786.8543.5914.0205-.1944.0312-.3917.0312-.5914v-5.1925c.0006-1.1795.9604-2.1387,2.1398-2.1387h.0012c1.1786.0006,2.1381.96,2.1387,2.1387v3.4614h3.4623v-3.4623"/><rect class="cls-1" x="32.2824" y="30.6598" width="3.4623" height="2.3851"/></svg>