<svg id="Layer_1" data-name="Layer 1" xmlns="http://www.w3.org/2000/svg" xmlns:xlink="http://www.w3.org/1999/xlink" viewBox="0 0 1454.14 466"><defs><style>.cls-1{fill:none;}.cls-2{fill:#231f20;}.cls-3{clip-path:url(#clip-path);}.cls-4{fill:#00bed6;}.cls-5{clip-path:url(#clip-path-4);}.cls-6{fill:#a25eb5;}</style><clipPath id="clip-path" transform="translate(-8 -127)"><rect class="cls-1" x="1006.14" y="132.51" width="455.96" height="454.99"/></clipPath><clipPath id="clip-path-4" transform="translate(-8 -127)"><rect class="cls-1" x="8" y="127.01" width="804" height="465.99"/></clipPath></defs><title>BCCancer_CMSGSC_Logo_Feb132020</title><path class="cls-2" d="M1245,212a28.2,28.2,0,1,0,28.24,28.2A28.25,28.25,0,0,0,1245,212Zm0,63.6a35.4,35.4,0,1,1,35.45-35.4,35.47,35.47,0,0,1-35.45,35.4Z" transform="translate(-8 -127)"/><path class="cls-2" d="M1304.69,235.5a28.2,28.2,0,1,0,28.24,28.19,28.24,28.24,0,0,0-28.24-28.19Zm0,63.59a35.4,35.4,0,1,1,35.46-35.4,35.46,35.46,0,0,1-35.46,35.4Z" transform="translate(-8 -127)"/><path class="cls-2" d="M1350.49,309.36a28.2,28.2,0,1,0,28.24,28.2,28.25,28.25,0,0,0-28.24-28.2Zm0,63.59A35.4,35.4,0,1,1,1386,337.56,35.47,35.47,0,0,1,1350.49,373Z" transform="translate(-8 -127)"/><path class="cls-2" d="M1344.06,373.59a28.2,28.2,0,1,0,28.24,28.2,28.25,28.25,0,0,0-28.24-28.2Zm0,63.6a35.4,35.4,0,1,1,35.46-35.4,35.47,35.47,0,0,1-35.46,35.4Z" transform="translate(-8 -127)"/><path class="cls-2" d="M1289.57,435.81A28.2,28.2,0,1,0,1317.81,464a28.24,28.24,0,0,0-28.24-28.19Zm0,63.59A35.4,35.4,0,1,1,1325,464a35.47,35.47,0,0,1-35.45,35.4Z" transform="translate(-8 -127)"/><path class="cls-2" d="M1226.64,450.17a28.2,28.2,0,1,0,28.24,28.19,28.25,28.25,0,0,0-28.24-28.19Zm0,63.59a35.4,35.4,0,1,1,35.45-35.4,35.47,35.47,0,0,1-35.45,35.4Z" transform="translate(-8 -127)"/><path class="cls-2" d="M1150.9,418.11a28.2,28.2,0,1,0,28.24,28.19,28.24,28.24,0,0,0-28.24-28.19Zm0,63.59a35.4,35.4,0,1,1,35.45-35.4,35.47,35.47,0,0,1-35.45,35.4Z" transform="translate(-8 -127)"/><path class="cls-2" d="M1117,363a28.2,28.2,0,1,0,28.24,28.19A28.25,28.25,0,0,0,1117,363Zm0,63.59a35.4,35.4,0,1,1,35.46-35.4,35.47,35.47,0,0,1-35.46,35.4Z" transform="translate(-8 -127)"/><path class="cls-2" d="M1123.79,280.77A28.2,28.2,0,1,0,1152,309a28.25,28.25,0,0,0-28.24-28.2Zm0,63.6a35.4,35.4,0,1,1,35.45-35.4,35.47,35.47,0,0,1-35.45,35.4Z" transform="translate(-8 -127)"/><g class="cls-3"><path class="cls-2" d="M1165,231.44a28.2,28.2,0,1,0,28.24,28.19A28.24,28.24,0,0,0,1165,231.44Zm0,63.59a35.4,35.4,0,1,1,35.45-35.4A35.47,35.47,0,0,1,1165,295Z" transform="translate(-8 -127)"/><path class="cls-2" d="M1011.22,389.87a14.27,14.27,0,0,1-2-19.78c3.3-4,7.81-4.27,14-4.84s10.69-1.08,14.66,2.22a13.11,13.11,0,0,1,4.82,9.31c.77,8.32-4.3,13.05-10.27,14.56l-.64-7.06c3.3-1.11,5-3.35,4.66-6.93a5.9,5.9,0,0,0-2.33-4.31c-1.64-1.22-3.34-1.42-10.25-.79s-8.6,1.14-10,2.64a5.84,5.84,0,0,0-1.46,4.66,6.59,6.59,0,0,0,2.48,4.8,6.93,6.93,0,0,0,4.94,1.18l1.36-.13-.6-6.6,5.85-.53,1.24,13.55-5.24.48c-5.2.48-8.42-.15-11.27-2.43Z" transform="translate(-8 -127)"/></g><polygon class="cls-2" points="1001.57 276.39 1036.59 267.72 1042.32 290.75 1036.22 292.26 1032.19 276.06 1023.98 278.09 1027.41 291.89 1021.31 293.4 1017.88 279.6 1009.37 281.71 1013.4 297.91 1007.3 299.43 1001.57 276.39 1001.57 276.39"/><polygon class="cls-2" points="1018.73 328.42 1033.49 306.62 1013.12 315.3 1010.36 308.83 1043.55 294.7 1046.01 300.47 1031.3 322.25 1051.62 313.59 1054.38 320.06 1021.19 334.19 1018.73 328.42 1018.73 328.42"/><path class="cls-2" d="M1067.38,470.19a5.84,5.84,0,0,0-.8-4.84,6,6,0,0,0-4.07-2.81c-2-.33-3.62.27-9.48,4s-7.07,4.91-7.62,6.88a6,6,0,0,0,.82,4.88,5.87,5.87,0,0,0,4,2.76c2,.34,3.65-.21,9.5-3.94s7-5,7.6-6.92Zm-17.89,17.54A14,14,0,0,1,1039,471.3c1.12-5,5-7.36,10.24-10.71s9-5.84,14-4.72a14,14,0,0,1,10.48,16.43c-1.12,5-5,7.4-10.21,10.75s-9,5.8-14.08,4.68Z" transform="translate(-8 -127)"/><polygon class="cls-2" points="1063.95 393.17 1079.44 378.98 1064.7 383.14 1061.48 379.64 1066.87 365.29 1051.38 379.49 1046.61 374.31 1073.2 349.95 1077.89 355.06 1069.89 375.16 1090.6 368.89 1095.3 374 1068.71 398.35 1063.95 393.17 1063.95 393.17"/><polygon class="cls-2" points="1077.64 405.94 1099.69 377.42 1118.51 391.92 1114.67 396.89 1101.43 386.69 1096.26 393.38 1107.53 402.06 1103.69 407.03 1092.42 398.34 1087.06 405.27 1100.3 415.48 1096.46 420.44 1077.64 405.94 1077.64 405.94"/><path class="cls-2" d="M1131.41,563.28c-4.9-2.43-8.11-5.32-9.68-10.12l6.11-2c1,3,3.46,5.11,6.46,6.59,3.72,1.85,6.42,1.43,7.7-1.15a4,4,0,0,0,.35-3.22,5.39,5.39,0,0,0-2.29-2.55l-3.64-2.48a12.2,12.2,0,0,1-4.93-5.78,9.5,9.5,0,0,1,.84-7.49c2.86-5.76,9.13-7.67,16.13-4.21,4.44,2.21,7.13,4.89,8.57,8.94l-6,2c-1.07-3-3.39-4.45-5.52-5.5-3.36-1.67-5.92-.62-7,1.6a3.47,3.47,0,0,0-.19,2.78,6.22,6.22,0,0,0,2.36,2.76l3.55,2.43c2.74,1.87,4.2,3.61,4.93,5.55.91,2.49.51,5.23-.91,8.09-3.11,6.25-10.08,7.2-16.85,3.85Z" transform="translate(-8 -127)"/><path class="cls-2" d="M1163.53,576.38a13.27,13.27,0,0,1-8-6.75c-2.34-4.59-.85-8.85,1.07-14.77s3.22-10.23,7.82-12.57a13.29,13.29,0,0,1,10.48-.75c6.41,2.07,10.23,7.36,9.1,14.92l-6.79-2.2c.22-3-.83-5.65-4.21-6.74a5.87,5.87,0,0,0-4.87.39c-1.77,1-2.68,2.53-4.83,9.13s-2.29,8.35-1.46,10.22a5.82,5.82,0,0,0,3.71,3.17c3.38,1.09,5.8-.46,7.37-3l6.8,2.21c-3.54,6.78-9.79,8.79-16.16,6.73Z" transform="translate(-8 -127)"/><polygon class="cls-2" points="1175.88 454.62 1183.18 419.33 1190.08 420.76 1182.78 456.04 1175.88 454.62 1175.88 454.62"/><polygon class="cls-2" points="1192.04 457.7 1196.09 421.9 1219.7 424.56 1219 430.8 1202.38 428.92 1201.43 437.32 1215.58 438.92 1214.88 445.15 1200.72 443.55 1199.74 452.25 1216.36 454.13 1215.65 460.36 1192.04 457.7 1192.04 457.7"/><polygon class="cls-2" points="1247.38 459.2 1231.77 438 1233.12 460.07 1226.09 460.5 1223.89 424.54 1230.16 424.16 1245.77 445.31 1244.42 423.29 1251.46 422.86 1253.65 458.82 1247.38 459.2 1247.38 459.2"/><path class="cls-2" d="M1284.82,581.65a13.3,13.3,0,0,1-10.36-1.7c-4.37-2.75-5.27-7.16-6.64-13.23s-2.48-10.44.27-14.8a13.29,13.29,0,0,1,8.62-6c6.57-1.49,12.56,1.09,15.47,8.17l-7,1.57c-1.33-2.65-3.6-4.42-7.06-3.64a5.87,5.87,0,0,0-4,2.82c-1,1.79-1,3.55.53,10.31s2.31,8.35,4,9.53a5.8,5.8,0,0,0,4.81.83c3.46-.78,4.75-3.36,4.8-6.33l7-1.57c.43,7.63-3.91,12.55-10.43,14Z" transform="translate(-8 -127)"/><polygon class="cls-2" points="1298.02 448.67 1284.93 415.1 1307.08 406.49 1309.36 412.33 1293.77 418.39 1296.84 426.27 1310.11 421.11 1312.39 426.96 1299.12 432.11 1302.31 440.27 1317.89 434.21 1320.17 440.06 1298.02 448.67 1298.02 448.67"/><path class="cls-2" d="M1345.46,558.26c-4.77,2.69-9,3.72-13.82,2.34l1.72-6.21c3.11.86,6.18,0,9.09-1.64,3.61-2,4.78-4.51,3.35-7a4,4,0,0,0-2.46-2.09,5.37,5.37,0,0,0-3.41.47l-4.09,1.61a12.2,12.2,0,0,1-7.56.85,9.55,9.55,0,0,1-5.74-4.89c-3.17-5.59-1.25-11.86,5.54-15.7,4.32-2.44,8.05-3.15,12.21-2.08l-1.7,6c-3.06-.77-5.59.31-7.67,1.48-3.26,1.85-3.82,4.55-2.6,6.71a3.52,3.52,0,0,0,2.2,1.72,6.23,6.23,0,0,0,3.61-.42l4-1.56c3.09-1.23,5.35-1.46,7.38-1,2.57.63,4.62,2.5,6.19,5.27,3.45,6.08.33,12.38-6.24,16.1Z" transform="translate(-8 -127)"/><path class="cls-2" d="M1383.47,531.54a13.25,13.25,0,0,1-9.94,3.36c-5.15-.37-8-3.85-12.09-8.56s-7.1-8.05-6.73-13.19a13.26,13.26,0,0,1,4.79-9.33c5.1-4.4,11.6-4.93,17.5-.05l-5.41,4.66c-2.43-1.72-5.26-2.21-7.95.1a5.83,5.83,0,0,0-2.19,4.36c0,2,.78,3.61,5.32,8.86s6,6.28,8,6.54a5.83,5.83,0,0,0,4.64-1.53c2.68-2.31,2.6-5.19,1.25-7.84l5.41-4.66c4,6.54,2.47,12.92-2.6,17.28Z" transform="translate(-8 -127)"/><polygon class="cls-2" points="1391.36 389.34 1364.04 365.81 1379.56 347.84 1384.32 351.94 1373.4 364.58 1379.81 370.1 1389.1 359.33 1393.86 363.43 1384.57 374.2 1391.2 379.91 1402.13 367.27 1406.89 371.36 1391.36 389.34 1391.36 389.34"/><polygon class="cls-2" points="1423.99 345.34 1397.64 345.88 1416.49 357.48 1412.8 363.47 1382.08 344.56 1385.38 339.22 1411.69 338.65 1392.88 327.08 1396.58 321.09 1427.29 340 1423.99 345.34 1423.99 345.34"/><polygon class="cls-2" points="1410.05 305.65 1437.54 317.15 1434.81 323.63 1407.33 312.14 1403.69 320.82 1397.89 318.39 1407.9 294.55 1413.69 296.97 1410.05 305.65 1410.05 305.65"/><g class="cls-3"><path class="cls-2" d="M1426.28,406.93l-1.63,6.42,9.23,2.34,1.64-6.42c.76-3-.66-5.44-3.36-6.13s-5.12.79-5.88,3.79Zm30.23,2-15.68,3.29-1.25,4.9,14,3.54-1.73,6.81-35-8.85,3.48-13.69c1.81-7.11,7.74-10.1,13.59-8.62a9.7,9.7,0,0,1,7.56,8.71l17.07-4-2,7.89Z" transform="translate(-8 -127)"/><polygon class="cls-2" points="1451.47 266.24 1415.61 262.19 1418.28 238.61 1424.53 239.32 1422.65 255.91 1431.06 256.86 1432.66 242.73 1438.9 243.44 1437.3 257.56 1446.01 258.55 1447.89 241.96 1454.14 242.66 1451.47 266.24 1451.47 266.24"/></g><path class="cls-2" d="M1045.35,330.07a13.3,13.3,0,0,1-5.36,9c-4.16,3.05-8.6,2.28-14.76,1.35s-10.64-1.51-13.71-5.65a13.3,13.3,0,0,1-2.45-10.2c1-6.65,5.61-11.28,13.26-11.4l-1.07,7.05c-3,.27-5.44,1.74-6,5.24a5.8,5.8,0,0,0,1.18,4.73c1.3,1.58,2.94,2.24,9.81,3.27s8.63.9,10.34-.23a5.78,5.78,0,0,0,2.52-4.17c.54-3.5-1.4-5.63-4.15-6.77l1.07-7.05c7.28,2.38,10.29,8.21,9.29,14.81Z" transform="translate(-8 -127)"/><path class="cls-2" d="M1027.15,294.9l11.18,8.24,2.66-8.56-13.84.32Zm26.79-.49-6.73.14-3.8,12.23,5.45,4-2.18,7-30.57-23.2,1.64-5.26,38.37-1.88-2.18,7Z" transform="translate(-8 -127)"/><polygon class="cls-2" points="1058.57 139.77 1032.36 142.55 1052.13 152.51 1048.96 158.79 1016.74 142.57 1019.57 136.97 1045.74 134.16 1026.01 124.22 1029.18 117.94 1061.4 134.17 1058.57 139.77 1058.57 139.77"/><path class="cls-2" d="M1059.19,231.58l7.89,11.42,5.3-7.22-13.19-4.2Zm25.49,8.24-6.41-2-7.58,10.32,3.86,5.53-4.34,5.91-21.34-31.87,3.26-4.44L1089,233.91l-4.34,5.91Z" transform="translate(-8 -127)"/><path class="cls-2" d="M1083.59,200.71a6.3,6.3,0,0,0-5.32,2.12l-3.78,3.74L1091,223.26l3.78-3.74a6.28,6.28,0,0,0,2.18-5.29c-.21-2.07-1.88-4-5.73-7.93s-5.6-5.36-7.68-5.59Zm20.47,13.67c0,3.36-1.69,6.5-4.35,9.13l-9.26,9.15-25.39-25.6,9.26-9.15c2.67-2.63,5.83-4.26,9.2-4.25,5.73,0,8.94,3.84,12.75,7.69s7.81,7.3,7.79,13Z" transform="translate(-8 -127)"/><path class="cls-2" d="M1107.23,184l4,13.29,7.27-5.25-11.26-8Zm21.71,15.67-5.46-3.92-10.39,7.49,2,6.44-6,4.3-10.49-36.88,4.48-3.23,31.81,21.5-6,4.3Z" transform="translate(-8 -127)"/><polygon class="cls-2" points="1112.64 49.08 1106.76 39.21 1112.68 35.69 1115.89 41.08 1112.64 49.08 1112.64 49.08"/><path class="cls-2" d="M1153,186.83c-5,2.3-9.23,3-14,1.21l2.22-6c3,1.11,6.15.5,9.19-.9,3.77-1.75,5.13-4.11,3.92-6.72a4,4,0,0,0-2.29-2.29,5.39,5.39,0,0,0-3.43.19l-4.21,1.28a12.22,12.22,0,0,1-7.6.22,9.51,9.51,0,0,1-5.33-5.34c-2.71-5.83-.28-11.92,6.8-15.19,4.51-2.08,8.29-2.49,12.35-1.08l-2.2,5.87c-3-1-5.59-.15-7.75.85-3.41,1.57-4.19,4.22-3.15,6.47a3.52,3.52,0,0,0,2.06,1.9,6.23,6.23,0,0,0,3.63-.12l4.12-1.24c3.18-1,5.45-1,7.42-.36,2.52.84,4.4,2.87,5.75,5.76,2.93,6.34-.69,12.36-7.54,15.53Z" transform="translate(-8 -127)"/><polygon class="cls-2" points="1195.25 43.84 1190.9 23.29 1186.99 38.08 1182.33 39.06 1172.71 27.13 1177.06 47.67 1170.16 49.13 1162.7 13.88 1169.5 12.45 1182.75 29.56 1187.89 8.57 1194.68 7.13 1202.14 42.38 1195.25 43.84 1195.25 43.84"/><g class="cls-3"><polygon class="cls-2" points="1208.2 42.41 1205.6 6.47 1212.62 5.96 1215.23 41.9 1208.2 42.41 1208.2 42.41"/><path class="cls-2" d="M1241.46,169.12a13.29,13.29,0,0,1-9.57-4.32c-3.5-3.78-3.23-8.27-3-14.49s.31-10.73,4.1-14.23a13.29,13.29,0,0,1,9.87-3.57c6.74.26,11.85,4.3,12.83,11.89l-7.14-.28c-.6-2.91-2.33-5.2-5.88-5.34a5.87,5.87,0,0,0-4.58,1.7c-1.43,1.47-1.89,3.17-2.16,10.1s.07,8.66,1.38,10.23a5.82,5.82,0,0,0,4.44,2c3.54.14,5.45-2,6.27-4.87l7.14.27c-1.56,7.49-7,11.12-13.71,10.87Z" transform="translate(-8 -127)"/></g><polygon class="cls-2" points="1269.11 46.52 1272.04 31.73 1260.06 29.36 1257.13 44.15 1250.22 42.78 1257.23 7.44 1264.14 8.81 1261.28 23.25 1273.26 25.62 1276.12 11.18 1283.03 12.55 1276.02 47.89 1269.11 46.52 1269.11 46.52"/><path class="cls-2" d="M1309.81,157l-8.87,10.68,8.4,3.14.47-13.82Zm-1,26.73L1309,177l-12-4.49-4.28,5.21-6.88-2.57L1310.79,146,1316,148l-.3,38.35-6.89-2.57Z" transform="translate(-8 -127)"/><polygon class="cls-2" points="1309.24 60.44 1326.87 29 1347.61 40.6 1344.54 46.07 1329.94 37.91 1325.81 45.29 1338.23 52.23 1335.16 57.71 1322.74 50.76 1318.45 58.4 1333.05 66.56 1329.98 72.03 1309.24 60.44 1309.24 60.44"/><polygon class="cls-2" points="1333.58 74.6 1355.54 46.01 1361.13 50.29 1342.99 73.9 1355.98 83.84 1352.16 88.82 1333.58 74.6 1333.58 74.6"/><path class="cls-2" d="M1376.09,232.69c-3.62-4.09-5.5-8-5.15-13l6.44.4c-.2,3.22,1.27,6,3.49,8.54,2.75,3.11,5.4,3.74,7.57,1.83a4,4,0,0,0,1.54-2.84,5.39,5.39,0,0,0-1.17-3.23l-2.42-3.66a12.21,12.21,0,0,1-2.39-7.21,9.52,9.52,0,0,1,3.61-6.63c4.82-4.25,11.36-3.66,16.52,2.18,3.29,3.72,4.76,7.21,4.56,11.5l-6.25-.42c.12-3.15-1.46-5.4-3-7.18-2.48-2.81-5.24-2.8-7.11-1.16a3.49,3.49,0,0,0-1.23,2.5,6.21,6.21,0,0,0,1.15,3.44l2.36,3.59c1.84,2.77,2.53,4.93,2.47,7-.09,2.65-1.5,5-3.89,7.15-5.24,4.62-12.07,2.87-17.06-2.79Z" transform="translate(-8 -127)"/><polygon class="cls-2" points="1393.25 140.28 1411.15 129.26 1395.89 130.57 1393.38 126.53 1401.39 113.45 1383.49 124.47 1379.79 118.49 1410.5 99.58 1414.15 105.48 1402.49 123.72 1424.02 121.46 1427.66 127.36 1396.94 146.27 1393.25 140.28 1393.25 140.28"/><polygon class="cls-2" points="1398.97 151.97 1431.96 137.36 1434.82 143.79 1401.83 158.4 1398.97 151.97 1398.97 151.97"/><polygon class="cls-2" points="1436.98 168.06 1408.61 177.19 1406.45 170.5 1434.82 161.37 1431.92 152.41 1437.9 150.48 1445.85 175.09 1439.87 177.02 1436.98 168.06 1436.98 168.06"/><polygon class="cls-2" points="1415.29 208.21 1430.2 205.84 1428.28 193.8 1413.37 196.17 1412.26 189.22 1447.9 183.56 1449 190.5 1434.44 192.82 1436.36 204.86 1450.92 202.55 1452.03 209.49 1416.39 215.15 1415.29 208.21 1415.29 208.21"/><path class="cls-4" d="M423.57,447c10.71,0,17.41,8.7,17.41,17.58a17.18,17.18,0,0,1-13.93,16.89C428.1,482.83,440.81,503,442.2,505h-7.66c-1.13-1.91-13.23-21-14.54-23.07H399.37V505h-6.1V447ZM423,476c7.05,0,11.15-5.31,11.15-11.4A11.34,11.34,0,0,0,422.78,453H399.37v23Z" transform="translate(-8 -127)"/><polygon class="cls-4" points="440.64 319.97 483.82 319.97 483.82 325.97 446.74 325.97 446.74 345.47 477.38 345.47 477.38 351.48 446.74 351.48 446.74 372.03 483.39 372.03 483.39 378.03 440.64 378.03 440.64 319.97 440.64 319.97 440.64 319.97"/><path class="cls-4" d="M501.21,494.09a29.15,29.15,0,0,0,18.1,6.43c7.58,0,13.78-3.84,13.78-10.19,0-14.8-34.54-11-34.54-29.25,0-8.44,8.76-15.8,21.55-15.8,12,0,18.49,5.68,18.49,5.68l-3.34,4.85a25.73,25.73,0,0,0-15.15-5c-8.86,0-14.56,4.93-14.56,10.11,0,14,34.53,9.94,34.53,29.25,0,8.77-8,15.88-21,15.88-14.16,0-21.94-7.52-21.94-7.52l4-4.43Z" transform="translate(-8 -127)"/><polygon class="cls-4" points="540.64 319.97 583.83 319.97 583.83 325.97 546.74 325.97 546.74 345.47 577.38 345.47 577.38 351.48 546.74 351.48 546.74 372.03 583.38 372.03 583.38 378.03 540.64 378.03 540.64 319.97 540.64 319.97 540.64 319.97"/><path class="cls-4" d="M607.32,490.23,600.18,505h-7l28.9-58.85h.35L650.94,505h-7.05l-7-14.8Zm14.8-30.9-11.93,24.9h23.69l-11.76-24.9Z" transform="translate(-8 -127)"/><path class="cls-4" d="M685.76,447c10.71,0,17.41,8.7,17.41,17.58a17.18,17.18,0,0,1-13.93,16.89c1,1.39,13.76,21.59,15.15,23.59h-7.66c-1.13-1.91-13.23-21-14.54-23.07H661.56V505h-6.1V447Zm-.61,29c7.05,0,11.15-5.31,11.15-11.4A11.34,11.34,0,0,0,685,453H661.56v23Z" transform="translate(-8 -127)"/><g class="cls-5"><path class="cls-4" d="M760.55,497.2a29.67,29.67,0,0,1-21.77,9.23,30.43,30.43,0,1,1,0-60.86,29.08,29.08,0,0,1,21.94,9.32l-4.7,4.7a22.58,22.58,0,0,0-17.15-7.75c-13,0-23.6,10.8-23.6,24.2a23.85,23.85,0,0,0,23.6,24.12,23.08,23.08,0,0,0,17.06-7.58l4.62,4.62Z" transform="translate(-8 -127)"/><polygon class="cls-4" points="758.9 319.97 765 319.97 765 346.08 797.82 346.08 797.82 319.97 804 319.97 804 378.03 797.82 378.03 797.82 352.09 765 352.09 765 378.03 758.9 378.03 758.9 319.97 758.9 319.97 758.9 319.97"/></g><path class="cls-4" d="M21.48,557.57h10c5,0,8.58,3.36,8.58,8.55a8.24,8.24,0,0,1-8.58,8.65H25.3v10.1H21.48v-27.3Zm9.36,13.88c3.29,0,5.3-2.05,5.3-5.33s-2-5.23-5.27-5.23H25.3v10.56Z" transform="translate(-8 -127)"/><path class="cls-4" d="M46.05,565.3h3.64v3.41a13.64,13.64,0,0,1-.08,1.47h.08c.89-2.87,3.17-5.11,6.19-5.11a6.34,6.34,0,0,1,1,.08v3.71a5.19,5.19,0,0,0-1.08-.12c-2.4,0-4.6,1.71-5.49,4.61a11.78,11.78,0,0,0-.47,3.52v8H46.05V565.3Z" transform="translate(-8 -127)"/><path class="cls-4" d="M71.63,564.84a10.25,10.25,0,1,1-10.56,10.21,10.21,10.21,0,0,1,10.56-10.21Zm0,17.25a7,7,0,1,0-6.73-7,6.76,6.76,0,0,0,6.73,7Z" transform="translate(-8 -127)"/><path class="cls-4" d="M85.92,565.3h4l4.76,13.23c.39,1.08.62,2.67.66,2.67h.08s.31-1.59.69-2.67l4.76-13.23h4l-7.24,19.57H93.23L85.92,565.3Z" transform="translate(-8 -127)"/><path class="cls-4" d="M109.84,557.57h3.79v3.82h-3.79v-3.82Zm0,7.73h3.75v19.57h-3.75V565.3Z" transform="translate(-8 -127)"/><path class="cls-4" d="M121.37,565.3H125v2.59a13.41,13.41,0,0,1-.08,1.44H125a8,8,0,0,1,7.35-4.49c4.6,0,6.73,2.51,6.73,7.5v12.53h-3.76V573.19c0-2.74-.58-4.91-3.71-4.91a6.41,6.41,0,0,0-6.19,4.8,9.31,9.31,0,0,0-.31,2.63v9.16h-3.75V565.3Z" transform="translate(-8 -127)"/><path class="cls-4" d="M155.69,564.84A9.9,9.9,0,0,1,163,567.7l-1.77,2.63a8,8,0,0,0-5.42-2.24,6.67,6.67,0,0,0-6.81,7,6.77,6.77,0,0,0,6.92,7,8.88,8.88,0,0,0,6-2.63l1.51,2.74a10.72,10.72,0,0,1-7.82,3.14c-6.15,0-10.48-4.37-10.48-10.25a10.06,10.06,0,0,1,10.48-10.25Z" transform="translate(-8 -127)"/><path class="cls-4" d="M169.71,557.57h3.79v3.82h-3.79v-3.82Zm0,7.73h3.75v19.57h-3.75V565.3Z" transform="translate(-8 -127)"/><path class="cls-4" d="M191.54,572.65h.85v-.35c0-3.21-1.82-4.3-4.3-4.3a9.88,9.88,0,0,0-5.45,1.9l-1.55-2.74a12.27,12.27,0,0,1,7.31-2.32c4.95,0,7.74,2.71,7.74,7.66v12.37h-3.49V583a14.29,14.29,0,0,1,.08-1.55h-.08a6.76,6.76,0,0,1-6.26,3.87c-3.37,0-6.66-2.05-6.66-6,0-6.46,8.52-6.73,11.81-6.73Zm-4.34,9.67c3.17,0,5.22-3.32,5.22-6.23v-.62h-1c-2.83,0-7.93.19-7.93,3.72,0,1.58,1.23,3.13,3.67,3.13Z" transform="translate(-8 -127)"/><path class="cls-4" d="M203.38,557.57h3.76v21.31c0,2.36.92,2.78,2.08,2.78a5.81,5.81,0,0,0,.66,0V585a10.21,10.21,0,0,1-1.24.08c-2.12,0-5.26-.58-5.26-5.49v-22Z" transform="translate(-8 -127)"/><polygon class="cls-4" points="220.46 430.57 224.29 430.57 224.29 442.56 238.45 442.56 238.45 430.57 242.28 430.57 242.28 457.87 238.45 457.87 238.45 445.88 224.29 445.88 224.29 457.87 220.46 457.87 220.46 430.57 220.46 430.57 220.46 430.57"/><path class="cls-4" d="M267.31,564.84c5.54,0,8.47,4.1,8.47,9.16,0,.51-.11,1.63-.11,1.63H261.4a6.39,6.39,0,0,0,6.73,6.46,9.34,9.34,0,0,0,5.8-2.28l1.55,2.74a11.68,11.68,0,0,1-7.59,2.79,10,10,0,0,1-10.36-10.25c0-6.23,4.21-10.25,9.78-10.25Zm4.65,8c-.12-3.37-2.21-5-4.72-5a5.62,5.62,0,0,0-5.73,5Z" transform="translate(-8 -127)"/><path class="cls-4" d="M292.43,572.65h.85v-.35c0-3.21-1.82-4.3-4.29-4.3a9.93,9.93,0,0,0-5.46,1.9L282,567.16a12.27,12.27,0,0,1,7.31-2.32c4.95,0,7.73,2.71,7.73,7.66v12.37h-3.48V583a14.29,14.29,0,0,1,.08-1.55h-.08a6.76,6.76,0,0,1-6.26,3.87c-3.37,0-6.66-2.05-6.66-6,0-6.46,8.51-6.73,11.8-6.73Zm-4.33,9.67c3.17,0,5.22-3.32,5.22-6.23v-.62h-1c-2.82,0-7.93.19-7.93,3.72,0,1.58,1.24,3.13,3.68,3.13Z" transform="translate(-8 -127)"/><path class="cls-4" d="M304.28,557.57H308v21.31c0,2.36.93,2.78,2.09,2.78a5.81,5.81,0,0,0,.66,0V585a10.21,10.21,0,0,1-1.24.08c-2.12,0-5.26-.58-5.26-5.49v-22Z" transform="translate(-8 -127)"/><path class="cls-4" d="M317.55,568.59H315v-3h2.67v-5.65h3.64v5.65H326v3h-4.72v8.7c0,3.91,2.74,4.42,4.17,4.42a3.82,3.82,0,0,0,.89-.09V585a9.89,9.89,0,0,1-1.31.08c-2.51,0-7.51-.77-7.51-7.31v-9.13Z" transform="translate(-8 -127)"/><path class="cls-4" d="M332.53,557.57h3.76v10a15.6,15.6,0,0,1-.08,1.62h.08a7.88,7.88,0,0,1,7.23-4.37c4.6,0,6.73,2.51,6.73,7.5v12.53H346.5V573.19c0-2.74-.58-4.91-3.71-4.91a6.48,6.48,0,0,0-6.19,4.83,9.27,9.27,0,0,0-.31,2.6v9.16h-3.76v-27.3Z" transform="translate(-8 -127)"/><path class="cls-4" d="M370.5,578.84a10.78,10.78,0,0,0,7,2.94c2.55,0,4.72-1.43,4.72-4,0-5.92-13.24-4.65-13.24-13,0-4.25,3.68-7.62,8.82-7.62a11.21,11.21,0,0,1,7.74,2.74L383.77,563a9.65,9.65,0,0,0-6-2.36c-2.9,0-4.95,1.82-4.95,4,0,5.64,13.23,4.13,13.23,13,0,4.22-3.25,7.7-8.66,7.7a12.74,12.74,0,0,1-9.05-3.6l2.16-2.9Z" transform="translate(-8 -127)"/><path class="cls-4" d="M401.15,564.84c5.53,0,8.47,4.1,8.47,9.16,0,.51-.12,1.63-.12,1.63H395.23a6.4,6.4,0,0,0,6.73,6.46,9.31,9.31,0,0,0,5.8-2.28l1.55,2.74a11.64,11.64,0,0,1-7.58,2.79,10,10,0,0,1-10.37-10.25c0-6.23,4.22-10.25,9.79-10.25Zm4.64,8c-.11-3.37-2.2-5-4.72-5a5.61,5.61,0,0,0-5.72,5Z" transform="translate(-8 -127)"/><path class="cls-4" d="M416.1,565.3h3.63v3.41c0,.81-.07,1.47-.07,1.47h.07c.89-2.87,3.17-5.11,6.19-5.11a6.17,6.17,0,0,1,1,.08v3.71a5.15,5.15,0,0,0-1.07-.12c-2.41,0-4.61,1.71-5.5,4.61a11.78,11.78,0,0,0-.46,3.52v8H416.1V565.3Z" transform="translate(-8 -127)"/><path class="cls-4" d="M429.88,565.3h4l4.77,13.23c.38,1.08.61,2.67.65,2.67h.08s.31-1.59.7-2.67l4.76-13.23h3.94l-7.23,19.57h-4.33l-7.31-19.57Z" transform="translate(-8 -127)"/><path class="cls-4" d="M453.79,557.57h3.79v3.82h-3.79v-3.82Zm0,7.73h3.75v19.57h-3.75V565.3Z" transform="translate(-8 -127)"/><path class="cls-4" d="M474.49,564.84a9.9,9.9,0,0,1,7.35,2.86l-1.77,2.63a8,8,0,0,0-5.42-2.24,6.67,6.67,0,0,0-6.81,7,6.77,6.77,0,0,0,6.92,7,8.88,8.88,0,0,0,6-2.63l1.51,2.74a10.72,10.72,0,0,1-7.82,3.14c-6.15,0-10.48-4.37-10.48-10.25a10.06,10.06,0,0,1,10.48-10.25Z" transform="translate(-8 -127)"/><path class="cls-4" d="M496.94,564.84c5.53,0,8.47,4.1,8.47,9.16,0,.51-.12,1.63-.12,1.63H491a6.4,6.4,0,0,0,6.73,6.46,9.31,9.31,0,0,0,5.8-2.28l1.55,2.74a11.64,11.64,0,0,1-7.58,2.79,10,10,0,0,1-10.37-10.25c0-6.23,4.22-10.25,9.79-10.25Zm4.64,8c-.12-3.37-2.2-5-4.72-5a5.61,5.61,0,0,0-5.72,5Z" transform="translate(-8 -127)"/><path class="cls-4" d="M512.07,579.81a8.43,8.43,0,0,0,5.62,2.28c1.62,0,3.25-.85,3.25-2.44,0-3.59-10.07-2.86-10.07-9.24,0-3.56,3.18-5.57,7.09-5.57,4.29,0,6.3,2.16,6.3,2.16l-1.51,2.83a7.16,7.16,0,0,0-4.83-1.74c-1.63,0-3.21.69-3.21,2.39,0,3.52,10,2.75,10,9.17,0,3.25-2.78,5.69-7.07,5.69a10.53,10.53,0,0,1-7.43-2.86l1.81-2.67Z" transform="translate(-8 -127)"/><path class="cls-4" d="M557.31,577H547l-2.71,7.85h-4l9.83-27.3h4l9.82,27.3h-4L557.31,577Zm-5.14-15.7s-.62,2.47-1.08,3.87L548,573.85h8.28l-3-8.66c-.46-1.4-1-3.87-1-3.87Z" transform="translate(-8 -127)"/><path class="cls-4" d="M569,565.3h3.75V577c0,2.7.55,4.87,3.68,4.87,4,0,6.34-3.52,6.34-7.39V565.3h3.76v19.57h-3.64v-2.59a14.16,14.16,0,0,1,.07-1.43h-.07a7.89,7.89,0,0,1-7.19,4.49c-4.42,0-6.7-2.32-6.7-7.51V565.3Z" transform="translate(-8 -127)"/><path class="cls-4" d="M595.13,568.59h-2.55v-3h2.67v-5.65h3.64v5.65h4.71v3h-4.71v8.7c0,3.91,2.74,4.42,4.17,4.42a4.08,4.08,0,0,0,.9-.09V585a10.15,10.15,0,0,1-1.32.08c-2.52,0-7.51-.77-7.51-7.31v-9.13Z" transform="translate(-8 -127)"/><path class="cls-4" d="M610.11,557.57h3.76v10a15.6,15.6,0,0,1-.08,1.62h.08a7.88,7.88,0,0,1,7.23-4.37c4.6,0,6.73,2.51,6.73,7.5v12.53h-3.75V573.19c0-2.74-.58-4.91-3.71-4.91a6.48,6.48,0,0,0-6.19,4.83,8.92,8.92,0,0,0-.31,2.6v9.16h-3.76v-27.3Z" transform="translate(-8 -127)"/><path class="cls-4" d="M644.48,564.84a10.25,10.25,0,1,1-10.56,10.21c0-5.92,4.71-10.21,10.56-10.21Zm0,17.25a7,7,0,1,0-6.73-7,6.76,6.76,0,0,0,6.73,7Z" transform="translate(-8 -127)"/><path class="cls-4" d="M661.43,565.3h3.64v3.41c0,.81-.07,1.47-.07,1.47h.07c.89-2.87,3.17-5.11,6.19-5.11a6.56,6.56,0,0,1,1,.08v3.71a5.31,5.31,0,0,0-1.08-.12c-2.4,0-4.61,1.71-5.5,4.61a11.78,11.78,0,0,0-.46,3.52v8h-3.76V565.3Z" transform="translate(-8 -127)"/><path class="cls-4" d="M677.81,557.57h3.79v3.82h-3.79v-3.82Zm0,7.73h3.76v19.57h-3.76V565.3Z" transform="translate(-8 -127)"/><path class="cls-4" d="M690.19,568.59h-2.55v-3h2.67v-5.65h3.63v5.65h4.72v3h-4.72v8.7c0,3.91,2.75,4.42,4.18,4.42a3.93,3.93,0,0,0,.89-.09V585a10,10,0,0,1-1.32.08c-2.51,0-7.5-.77-7.5-7.31v-9.13Z" transform="translate(-8 -127)"/><path class="cls-4" d="M703.78,588.94a4.36,4.36,0,0,0,2.28.81c1.51,0,2.78-1.09,3.52-2.86l1-2.25-8.2-19.34h4.21l4.92,12.8c.38,1,.73,2.37.73,2.37h.08s.3-1.32.65-2.33l4.76-12.84h4.06l-9.17,23.1a6.72,6.72,0,0,1-6.34,4.6,6.86,6.86,0,0,1-3.79-1.2l1.32-2.86Z" transform="translate(-8 -127)"/><g class="cls-5"><path class="cls-4" d="M97.42,183c9.57,2.43,18.27,11.82,18.27,27.83,0,19.31-15,35-35.66,35H14.1v-116H80.21c15.82,0,29.92,12.87,29.92,29.23,0,11.13-5.58,20-12.71,24m-54.8-11h30.8c4.69,0,7.48-3,7.48-7s-2.79-7-7.48-7H42.62v13.92Zm0,45.41H75.33a8.62,8.62,0,1,0,0-17.23H42.62v17.23Z" transform="translate(-8 -127)"/><path class="cls-4" d="M209.09,167.88c-5.57-6.27-13.21-11.83-24.18-11.83-17,0-31.31,14.09-31.31,31.84,0,16.86,13.92,31.66,31.31,31.66,10.09,0,19-5.74,24.71-12.88L229.8,227.2c-8,8.7-23.49,21.4-44.89,21.4-32.7,0-61.24-25.57-61.24-60.71,0-34.81,28-60.89,61.24-60.89,21.92,0,36.36,11.48,44.53,19.83l-20.35,21Z" transform="translate(-8 -127)"/></g><path class="cls-4" d="M93.42,426.62c-5.56-6.27-13.21-11.83-24.19-11.83-17,0-31.3,14.09-31.3,31.84,0,16.87,13.92,31.66,31.3,31.66,10.1,0,19-5.74,24.71-12.88l20.19,20.53c-8,8.7-23.49,21.39-44.9,21.39C36.53,507.33,8,481.77,8,446.63c0-34.8,28-60.9,61.23-60.9,21.92,0,36.37,11.49,44.54,19.84L93.42,426.62Z" transform="translate(-8 -127)"/><polygon class="cls-4" points="119.85 377.55 119.85 261.52 212.06 261.52 212.06 290.22 149.08 290.22 149.08 305.36 197.62 305.36 197.62 333.89 149.08 333.89 149.08 348.85 212.06 348.85 212.06 377.55 119.85 377.55 119.85 377.55 119.85 377.55"/><path class="cls-4" d="M239,504.56v-116h61.76c21.05,0,39,15.49,39,39.15,0,16-10.44,30.27-22.79,34.63L342,504.56H305.28l-21.74-38.28H268.41v38.28Zm29.41-66.47H298c6.26,0,12-3.82,12-10.43,0-7-5.39-10.61-12-10.61H268.41v21Z" transform="translate(-8 -127)"/><path class="cls-6" d="M186.31,259.14H156c-.69,2.27-40.88,113.61-41.75,116.05h31.66l6.79-19.49h38.1L198,375.19h32l-43.65-116Zm-14.42,69a10.78,10.78,0,1,1,10.78-10.77,10.77,10.77,0,0,1-10.78,10.77" transform="translate(-8 -127)"/><path class="cls-6" d="M93.42,297.25c-5.56-6.26-13.21-11.83-24.19-11.83-17,0-31.3,14.09-31.3,31.84,0,16.87,13.92,31.66,31.3,31.66,10.1,0,19-5.74,24.71-12.88l20.19,20.53c-8,8.7-23.49,21.4-44.9,21.4C36.53,378,8,352.39,8,317.26c0-34.8,28-60.89,61.23-60.89,21.92,0,36.37,11.48,44.54,19.83L93.42,297.25Z" transform="translate(-8 -127)"/><polygon class="cls-6" points="230.83 248.19 230.83 129.88 294.33 186.6 294.33 132.15 323.39 132.15 323.39 250.45 260.06 193.73 260.06 248.19 230.83 248.19 230.83 248.19 230.83 248.19"/></svg>